<svg xmlns="http://www.w3.org/2000/svg" xmlns:xlink="http://www.w3.org/1999/xlink" width="139" height="139" viewBox="0 0 139 139">
    <defs>
        <linearGradient id="a" x1="0%" x2="98.853%" y1="100%" y2="1.147%">
            <stop offset="0%" stop-color="#194271"/>
            <stop offset="32.569%" stop-color="#1C83A1"/>
            <stop offset="73.528%" stop-color="#00BEA9"/>
            <stop offset="100%" stop-color="#7BB58E"/>
        </linearGradient>
        <rect id="c" width="784" height="3074" x="120" y="447" rx="4"/>
        <filter id="b" width="101.5%" height="100.4%" x="-.8%" y="-.2%" filterUnits="objectBoundingBox">
            <feOffset in="SourceAlpha" result="shadowOffsetOuter1"/>
            <feGaussianBlur in="shadowOffsetOuter1" result="shadowBlurOuter1" stdDeviation="2"/>
            <feColorMatrix in="shadowBlurOuter1" values="0 0 0 0 0 0 0 0 0 0 0 0 0 0 0 0 0 0 0.203521286 0"/>
        </filter>
    </defs>
    <g fill="none" fill-rule="evenodd">
        <path fill="url(#a)" d="M0 0h1024v3800H0z" transform="translate(-213 -1663)"/>
        <g transform="translate(-213 -1663)">
            <use fill="#000" filter="url(#b)" xlink:href="#c"/>
            <use fill="#FFF" xlink:href="#c"/>
        </g>
        <g>
            <g transform="translate(1 1)">
                <circle cx="68.5" cy="68.5" r="68.5" stroke="#D4D4D4"/>
                <circle cx="69" cy="68" r="61" stroke="#D4D4D4"/>
                <path fill="#2DC18F" d="M37.86 82c.48-11.64 2.68-19.04 8.48-27.12H31.58v-2.04h17.6v1.4c-6.92 9.08-8.36 16.36-8.8 27.76h-2.52zm15 0v-1.44c9.88-8.52 13.8-14.52 13.8-19.8 0-3.64-1.84-6.48-5.96-6.48-2.52 0-4.8 1.56-6.48 3.64l-1.48-1.4c2.2-2.44 4.68-4.2 8.2-4.2 5.08 0 8.08 3.32 8.08 8.36 0 6.12-4.72 12.24-12.48 19.48 1.6-.12 3.28-.24 4.8-.24h9.08V82H52.86zM80.5 70.64c-3.88 0-6.32-3.32-6.32-9.24 0-5.8 2.44-9.08 6.32-9.08 3.92 0 6.32 3.28 6.32 9.08 0 5.92-2.4 9.24-6.32 9.24zm0-1.6c2.64 0 4.4-2.76 4.4-7.64 0-4.84-1.76-7.48-4.4-7.48-2.64 0-4.36 2.64-4.36 7.48 0 4.88 1.72 7.64 4.36 7.64zm.8 13.48l16.24-30.2h1.84l-16.24 30.2H81.3zm19 0c-3.92 0-6.36-3.28-6.36-9.2 0-5.84 2.44-9.12 6.36-9.12 3.84 0 6.32 3.28 6.32 9.12 0 5.92-2.48 9.2-6.32 9.2zm0-1.6c2.6 0 4.36-2.72 4.36-7.6 0-4.88-1.76-7.52-4.36-7.52-2.68 0-4.4 2.64-4.4 7.52 0 4.88 1.72 7.6 4.4 7.6z"/>
            </g>
        </g>
    </g>
</svg>
