<svg xmlns="http://www.w3.org/2000/svg" xmlns:xlink="http://www.w3.org/1999/xlink" width="139" height="139" viewBox="0 0 139 139">
    <defs>
        <linearGradient id="a" x1="0%" x2="98.853%" y1="100%" y2="1.147%">
            <stop offset="0%" stop-color="#194271"/>
            <stop offset="32.569%" stop-color="#1C83A1"/>
            <stop offset="73.528%" stop-color="#00BEA9"/>
            <stop offset="100%" stop-color="#7BB58E"/>
        </linearGradient>
        <rect id="c" width="784" height="3074" x="120" y="447" rx="4"/>
        <filter id="b" width="101.5%" height="100.4%" x="-.8%" y="-.2%" filterUnits="objectBoundingBox">
            <feOffset in="SourceAlpha" result="shadowOffsetOuter1"/>
            <feGaussianBlur in="shadowOffsetOuter1" result="shadowBlurOuter1" stdDeviation="2"/>
            <feColorMatrix in="shadowBlurOuter1" values="0 0 0 0 0 0 0 0 0 0 0 0 0 0 0 0 0 0 0.203521286 0"/>
        </filter>
    </defs>
    <g fill="none" fill-rule="evenodd">
        <path fill="url(#a)" d="M0 0h1024v3800H0z" transform="translate(-670 -1663)"/>
        <g transform="translate(-670 -1663)">
            <use fill="#000" filter="url(#b)" xlink:href="#c"/>
            <use fill="#FFF" xlink:href="#c"/>
        </g>
        <g>
            <g transform="translate(1 1)">
                <circle cx="69" cy="68" r="61" stroke="#D4D4D4"/>
                <circle cx="68.5" cy="68.5" r="68.5" stroke="#D4D4D4"/>
                <path fill="#0691BC" d="M32.2 82v-2.04h6.6V56.24h-5.08v-1.56c2.36-.4 4.16-1.04 5.56-1.84h1.88v27.12h6.08V82H32.2zm18.12 7.08l13.16-38.52h1.92L52.2 89.08h-1.88zM69.36 82v-2.04h6.6V56.24h-5.08v-1.56c2.36-.4 4.16-1.04 5.56-1.84h1.88v27.12h6.08V82H69.36zm28.44.52c-5.32 0-8.6-4.96-8.6-15.2 0-10.12 3.28-15 8.6-15 5.28 0 8.56 4.88 8.56 15 0 10.24-3.28 15.2-8.56 15.2zm0-1.96c3.76 0 6.24-4.4 6.24-13.24 0-8.68-2.48-13.04-6.24-13.04-3.8 0-6.28 4.36-6.28 13.04 0 8.84 2.48 13.24 6.28 13.24z"/>
            </g>
        </g>
    </g>
</svg>
