<svg xmlns="http://www.w3.org/2000/svg" xmlns:xlink="http://www.w3.org/1999/xlink" width="139" height="139" viewBox="0 0 139 139">
    <defs>
        <linearGradient id="a" x1="0%" x2="98.853%" y1="100%" y2="1.147%">
            <stop offset="0%" stop-color="#194271"/>
            <stop offset="32.569%" stop-color="#1C83A1"/>
            <stop offset="73.528%" stop-color="#00BEA9"/>
            <stop offset="100%" stop-color="#7BB58E"/>
        </linearGradient>
        <rect id="c" width="784" height="3074" x="120" y="447" rx="4"/>
        <filter id="b" width="101.5%" height="100.4%" x="-.8%" y="-.2%" filterUnits="objectBoundingBox">
            <feOffset in="SourceAlpha" result="shadowOffsetOuter1"/>
            <feGaussianBlur in="shadowOffsetOuter1" result="shadowBlurOuter1" stdDeviation="2"/>
            <feColorMatrix in="shadowBlurOuter1" values="0 0 0 0 0 0 0 0 0 0 0 0 0 0 0 0 0 0 0.203521286 0"/>
        </filter>
    </defs>
    <g fill="none" fill-rule="evenodd">
        <path fill="url(#a)" d="M0 0h1024v3800H0z" transform="translate(-443 -1663)"/>
        <g transform="translate(-443 -1663)">
            <use fill="#000" filter="url(#b)" xlink:href="#c"/>
            <use fill="#FFF" xlink:href="#c"/>
        </g>
        <g>
            <g transform="translate(1 1)">
                <circle cx="68" cy="68" r="61" stroke="#D4D4D4"/>
                <circle cx="68.5" cy="68.5" r="68.5" stroke="#D4D4D4"/>
                <path fill="#00BFBA" d="M49.72 82.52c-4.52 0-7.24-2.04-9.08-4l1.32-1.56c1.68 1.8 3.96 3.56 7.68 3.56 3.76 0 6.48-2.48 6.48-6.24 0-3.92-2.72-6.56-9.68-6.56v-1.96c6.4 0 8.64-2.76 8.64-6.24 0-3.16-2.16-5.24-5.52-5.28-2.52.04-4.8 1.36-6.4 3.08l-1.36-1.6c2-1.88 4.48-3.4 7.8-3.44 4.48.04 7.88 2.56 7.88 7.08 0 3.76-2.24 6.16-5.36 7.2v.2c3.52.76 6.4 3.4 6.4 7.52 0 5.08-3.84 8.24-8.8 8.24zm16.44-11.84l-.88-1.72c5.88-1.12 12.8-5.12 12.8-11.44v-.4H66.2v-1.8h11.88v-5.16h2.12v5.16h11.84v1.8H80.2v.4c0 6.32 6.92 10.32 12.8 11.44l-.92 1.72c-5.16-1.12-10.88-4.08-12.96-9.08-2.04 5-7.8 7.96-12.96 9.08zm14.04 7.56h15.08v1.8H63.04v-1.8h15.04v-8.8h2.12v8.8z"/>
            </g>
        </g>
    </g>
</svg>
