<svg xmlns="http://www.w3.org/2000/svg" xmlns:xlink="http://www.w3.org/1999/xlink" width="203" height="203" viewBox="0 0 203 203">
    <defs>
        <circle id="a" cx="101.5" cy="101.5" r="101.5"/>
        <path id="c" d="M.482.43h98.036v69.612H.482z"/>
    </defs>
    <g fill="none" fill-rule="evenodd">
        <mask id="b" fill="#fff">
            <use xlink:href="#a"/>
        </mask>
        <g mask="url(#b)">
            <path fill="#50E3C2" d="M-17-22h241v241H-17z"/>
            <g transform="translate(-3 -62)">
                <circle cx="67" cy="193" r="4" fill="#FFF"/>
                <circle cx="53" cy="182" r="7" fill="#FFF"/>
                <ellipse cx="107" cy="89.5" fill="#FFF" rx="107" ry="89.5"/>
                <text fill="#868686" font-family="BMDoHyeon-OTF, BM DoHyeon OTF" font-size="14">
                    <tspan x="49.5" y="103">액션게임은 싫지만</tspan> <tspan x="49.5" y="124.1">리워드가 빵빵하니</tspan> <tspan x="68.4" y="145.2">신청해볼까..</tspan>
                </text>
            </g>
            <g transform="translate(49.578 139.958)">
                <mask id="d" fill="#fff">
                    <use xlink:href="#c"/>
                </mask>
                <path fill="gray" d="M98.172 55.52c-.21-2.575-.22-5.161-.42-7.736-.384-4.91-1.115-9.96-2.597-14.656-2.846-9.016-8.996-16.275-16.48-21.93-11.086-8.377-24.659-12.953-38.682-9.73C30.661 3.615 22.08 9 15.2 15.505 10.03 20.394 5.988 26.337 3.844 33.128c-1.482 4.696-2.214 9.747-2.596 14.656-.202 2.575-.212 5.16-.42 7.735-.202 2.482-.346 4.975-.346 7.468v7.055h98.036v-7.055c0-2.493-.144-4.986-.346-7.468" mask="url(#d)"/>
            </g>
            <path fill="#EEBCA1" d="M110.192 135.802c-.761 1.372-1.898 2.796-3.664 2.77-1.373-.022-2.229-.55-1.876 1.421.077.428.57 3.064.161 3.31-1.365.815-3.14.86-4.682 1.083-1.564.22-3.313.182-4.88.162-.682-.24-1.573-4.137-1.825-4.835-.725-2.013-.467-4.405-1.634-6.207-1.156-1.787-2.437-3.641-3.86-5.24-1.5-1.687-3.07-3.552-3.463-5.84-.631-3.686 1.36-7.743 3.82-10.372 5.41-5.785 12.467-5.261 17.968-.264 1.9 1.726 4.641 3.659 5.564 6.134.985 2.645.655 5.84.496 8.617-.143 2.513-.588 6.492-2.125 9.261"/>
            <path fill="#474843" d="M93.682 115.249c-.608.906-1.398 1.534-3.095 2.1-3.91 1.302-4.41 3.078-1.816 6.02 2.859 3.24 1.547 7.67 2.507 9.353-1.27-1.182-2.788-1.934-4.276-3.124-1.512-1.207-2.687-3.108-3.56-4.799-1.747-3.378-2.68-7.51-1.707-11.256.563-2.167 1.618-4.258 3.226-5.852 1.558-1.54 3.91-3.812 6.324-2.84.37-2.053 4.85-3.283 6.571-3.483 5.613-.652 9.2 3.366 12.597 7.107.714.786 7.925 9.411 8.567 8.264-4.76 8.526-24.16-3.774-23.694-4.646-.725 1.362-1.115 2.364-1.644 3.156"/>
            <path fill="#E8AB95" d="M100.273 131.165c-.18-1.686 1.036-8.693 3.123-5.14.82 1.395 1.415 3.643 1.032 5.253-1.385-.017-2.786.094-4.155-.113"/>
            <path fill="#2894B1" d="M92.929 138.54c-.35.583.2 4.474.474 6.36 1.687.128 3.433.573 5.117.41 1.107-.106 1.97-.48 3.115-.162-1.151-1.495-1.56-2.662-2.898-3.807-1.798-1.543-5.558-3.22-5.808-2.801"/>
            <path fill="#2894B1" d="M104.87 139.706c.133 1.946.507 2.867.419 4.77-1.266.23-2.558.784-3.843.728-.842-.035-1.52-.354-2.365.037.773-1.565 1.452-2.638 2.529-3.697 1.222-1.205 3.221-2.398 3.26-1.838"/>
            <path fill="gray" d="M108.898 149.757c-2.233 4.87-9.047 3.709-13.16 2.135-2.666-1.018-8.551-3.262-7.4-7.066.668-2.21 2.706-3.23 4.52-4.128.31 4.487 7.893 4.335 10.383 2.734.396-.256 1.72-.815 1.844-1.866 1.847 2.143 5.25 5.06 3.813 8.191"/>
            <g>
                <path fill="#EEBCA1" d="M76.56 194.757c-.69-2.542 1.381-5.408 2.699-7.522.903-1.45.966-3.085 2.326-5.192 1.72-2.664 7.42-3.458 9.993-2.196.023 2.05 2.456 4.888 1.689 6.833-.67 1.699-4.228 2.44-5.357 4.407-1.173 2.044-.911 4.706-2.535 6.694-1.662 2.036-4.057 2.53-6.393 2.884-.246-2.03-1.904-3.993-2.422-5.908"/>
                <path fill="#2894B1" d="M81.732 195.725c.255.057.51.14.762.246.797.339 1.63.924 2.36 1.379 1.005.62 1.491 1.642 2.232 2.56-.622.461-1.336.64-2.015.986-1.034.528-2.079 1.029-3.097 1.588-1.129.619-1.762.201-2.71-.678-.822-.761-1.463-1.693-2.138-2.578a24.59 24.59 0 0 1-.945-1.328c-1.079-1.621-1.988-3.349-2.908-5.08-.415-.779-.344-.808.24-1.413.45-.466.809-1.008 1.257-1.475.918-.952 1.848-2.026 2.609-3.098 1.18.468 1.937 2.8 2.437 3.86.841 1.779-.217 3.982-.933 5.613.861-.647 1.86-.804 2.849-.582"/>
                <path fill="#474843" d="M115.05 181.828c.953-1.591 1.802-3.236 2.744-4.839.925-1.574 2.074-3.009 2.988-4.595.68-1.176 2.795-3.718 2.068-5.19-.572-1.159-2.515-.902-3.574-.968-2.168-.138-4.342-.045-6.509-.012-1.24.015-2.808-.228-3.945.386-1.315.713-1.896 2.21-2.797 3.309a25.625 25.625 0 0 0-2.413 3.495c-1.746 3.012-3.398 6.077-5.146 9.089-.802 1.381-3.263 4.666-2.512 6.361.652 1.477 3.382 1.016 4.623.977 2.22-.07 4.602-.32 6.876-.59 1.592-.187 3.116-.316 4.157-1.656.957-1.228 1.5-2.812 2.384-4.108.37-.544.72-1.098 1.056-1.66"/>
                <path fill="#333" d="M109.637 189.024c-.092.042-.188.08-.286.118-2.422.9-5.43.625-7.97.715-1.347.048-4.416.339-4.1-1.616.18-1.104 1.057-2.041 1.624-2.966 1.015-1.66 1.866-3.41 2.789-5.128 1.584-2.945 2.887-6.144 5.008-8.74.993-1.217 1.931-2.887 3.439-3.475 2.449-.953 6.234-.32 8.763-.284 2.073.03 3.472.131 3.752-.725 1.507.993-1.945 5.825-2.779 7.35-1.382 2.52-2.474 3.49-3.921 5.972a369.628 369.628 0 0 1-3.426 5.747c-.769 1.27-1.527 2.42-2.893 3.032"/>
                <path fill="#474843" d="M113.13 173.311c.05 0 .096.001.137.004.074.007.15.018.229.026l.066.009c.21.026.432.052.65.052.329 0 .577-.06.757-.182.242-.163.406-.494.564-.812.1-.2.203-.408.327-.574.134-.181.188-.36.144-.478-.046-.12-.192-.173-.307-.198-.365-.077-.793-.078-1.207-.08l-.329-.002c-.355 0-.57.037-.75.246-.277.314-.53.69-.713 1.06-.03.057-.07.127-.114.2-.099.166-.248.415-.226.545.019.113.11.188.487.188l.285-.004zm1.081.412c-.236 0-.47-.027-.688-.054l-.066-.008c-.076-.009-.15-.018-.22-.024a.94.94 0 0 0-.107-.004l-.285.004c-.199 0-.727 0-.803-.457-.042-.245.128-.533.266-.762.04-.067.076-.128.103-.18.194-.394.464-.795.758-1.13.286-.327.633-.354.992-.354l.33.002c.41.002.875.004 1.272.087.352.076.489.26.542.4.085.227.019.505-.188.783-.106.143-.198.329-.296.525-.177.356-.36.725-.671.935-.235.16-.543.237-.939.237z"/>
                <path fill="#474843" d="M114.553 171.538c-.458 0-.995.482-1.045.936-.01.1-.01.236.057.308.043.048.115.073.214.073.216 0 .516-.12.716-.285.252-.209.505-.593.465-.807-.005-.033-.024-.131-.217-.195a.613.613 0 0 0-.19-.03m-.774 1.638c-.192 0-.348-.062-.453-.179-.117-.13-.163-.318-.137-.558.078-.718.992-1.399 1.656-1.176.307.103.404.297.431.44.076.404-.303.887-.576 1.114-.217.18-.585.36-.92.36"/>
                <path fill="#474843" d="M114.698 171.873c-.05-.613-1.036.121-1.03.547.005.344.268.328.513.167.192-.129.537-.458.517-.714"/>
                <path fill="#736357" d="M112.217 171.035c.044-.065.084-.117.11-.127.127-.052.438-.026.579.015-.12.179-.12.179-.184.262-.054.07-.103.205-.181.253-.091.057-.167.026-.264.027a.818.818 0 0 1-.32-.051c.031.01.157-.225.26-.379"/>
                <path fill="#736357" d="M112.27 171.305c.052 0 .076.002.099.004l.046.003c.02 0 .029-.002.042-.01.016-.013.049-.071.068-.104a.9.9 0 0 1 .07-.111c.014-.018.025-.03.034-.045a.833.833 0 0 0-.232.012c.002.002-.015.025-.048.072-.03.048-.065.102-.097.156l-.014.023h.033zm.145.328a.55.55 0 0 1-.071-.004c-.02 0-.04-.007-.06-.002a1 1 0 0 1-.385-.063.16.16 0 0 1-.093-.203.165.165 0 0 1 .07-.086c.025-.033.062-.094.102-.162a4.59 4.59 0 0 1 .105-.167c.07-.101.119-.162.185-.188.143-.058.493-.045.682.012a.16.16 0 0 1 .09.244c-.125.184-.125.184-.19.27-.017.019-.03.045-.045.072-.045.078-.094.167-.18.22a.39.39 0 0 1-.21.057z"/>
                <path fill="#474843" d="M111.028 173.11h.016c.162 0 .36.017.458-.016.045-.015.06-.036.094-.15.012-.037.025-.077.04-.113.043-.1.1-.203.158-.303.033-.06.068-.12.098-.179.014-.03.04-.068.069-.116.039-.062.13-.206.163-.294h-.036l-.144-.04-.038-.042h-.002c-.186 0-.297.184-.423.414l-.023.066c-.06.108-.121.221-.183.327-.085.143-.17.446-.247.446m.241.334c-.084 0-.168-.004-.245-.01l-.065-.002c-.078-.006-.21-.012-.273-.121-.063-.107-.006-.22.028-.289.086-.176.185-.342.284-.51.06-.103.12-.204.178-.308l.022.079c.097-.179.296-.426.686-.426h.204c.09 0 .22-.11.308-.017.16.17-.019.396-.163.624-.024.04-.044.039-.055.06-.032.064-.068.114-.105.178-.052.089-.102.172-.14.262a.958.958 0 0 0-.03.083c-.036.115-.091.288-.3.355a.99.99 0 0 1-.334.042M115.942 173.46l.031.003.12.022c.21.04.567.077.632-.003.124-.145.212-.349.3-.547.03-.071.061-.14.092-.206.098-.203.218-.421.348-.63.015-.025.042-.062.076-.112.296-.416.316-.544.302-.582-.096-.032-.208-.038-.315-.044l-.074-.005c-.051-.002-.105-.005-.16-.005-.159 0-.25.03-.303.103-.067.089-.115.203-.165.322-.054.128-.11.26-.195.38-.21.3-.399.64-.545.985a1.204 1.204 0 0 1-.07.132.945.945 0 0 0-.093.191.047.047 0 0 1 .019-.004m.568.4c-.168 0-.347-.036-.477-.06l-.104-.018c-.093-.012-.288-.04-.324-.254-.024-.143.06-.288.134-.417a.79.79 0 0 0 .052-.095c.154-.365.354-.725.578-1.045a1.62 1.62 0 0 0 .16-.32c.057-.133.114-.268.203-.39.155-.208.396-.232.563-.232.061 0 .122.004.18.007l.07.005c.123.005.264.013.394.059.134.047.188.139.21.208.076.243-.13.562-.347.867a2.49 2.49 0 0 0-.064.092c-.122.198-.24.411-.331.601-.03.063-.06.129-.089.196-.09.208-.194.445-.347.627-.096.112-.246.168-.461.168"/>
                <path fill="#333" d="M103.64 175.288c.437-.453.65-1.188.99-1.7.194-.292.546-.675.377-1.057-.43-.07-.846.779-1.02 1.1-.23.426-.548.877-.714 1.325-.093.252-.084.748.296.4a.908.908 0 0 0 .072-.068"/>
                <path fill="#EEBCA1" d="M117.949 197.208c.996-.703 2.112-1.247 3.35-1.705.067-.025-3.617-5.214-3.789-5.757-1.279-4.045 3.034-6.588 3.81-10.252.472-2.228-1.883-6.273-3.137-7.89-1.748.234-4.156 3.31-5.635 4.587-3.382 2.919-1.28 2.235-.62 5.553.737 3.704-3.799 6.197-2.906 10.163.713 3.165 3.855 6.012 6.265 7.988a10.728 10.728 0 0 1 2.662-2.687"/>
                <path fill="#2894B1" d="M114.787 203.44c-.867-2.386-2.538-4.52-4.783-5.748 1.537-.902 3.473-3.453 5.125-4.013.649-.221 3.447-.104 3.478 1.026-.05-1.865-.538-2.313.133-3.84.466-1.065 1.505-2.184 2.096-3.036 1.335 1.881 3.09 3.46 4.406 5.294-3.886 2.592-6.64 7.426-10.455 10.318"/>
            </g>
        </g>
    </g>
</svg>
