<svg xmlns="http://www.w3.org/2000/svg" width="186" height="33" viewBox="0 0 186 33">
    <g fill="#0C776D" fill-rule="evenodd">
        <path d="M65.217 14.667v3.96H55.41v7.744h11.05v3.842h-26.77v-3.842h11.05v-7.744h-9.837v-3.96h4.14V6.6h-4.14V2.61h24.313V6.6h-3.86v8.067h3.86zM49.807 6.6v8.067h6.787V6.6h-6.786zM70.042 30.067V2.61h12.265v9.592h2.646V2.464h4.327v27.75h-4.327v-14.11h-2.646v13.963H70.042zm4.327-23.408v19.36h3.61V6.659h-3.61zM95.848 2.464v27.75H91.49V2.463zM107.896 2.464h1.65c4.046 0 7.253 3.315 7.253 7.128v13.493c0 3.843-3.269 7.128-7.378 7.128h-1.525c-4.234 0-7.658-3.168-7.658-7.128V9.592c0-3.96 3.424-7.128 7.658-7.128zm1.463 4.165h-1.463c-1.775 0-3.238 1.32-3.238 2.963v13.493c0 1.643 1.463 2.963 3.238 2.963h1.4c1.744 0 3.082-1.379 3.082-2.963V9.592c0-1.555-1.338-2.963-3.02-2.963zM125.141 2.464v27.75h-4.794V2.463zM134.854 30.037l1.899-12.936H129.5v-3.96h7.844l.996-6.6h-8.996v-3.93h13.884v3.93l-3.58 23.496zM155.026 30.213h-4.39V17.248h-6.132v-4.136h6.133V2.464h4.389zM159.228 26.37H186v3.843h-26.772zM184.942 20.885h-5.448l-6.88-12.906-6.88 12.906h-5.447l9.37-18.333h5.915zM17.121 32.633C7.665 32.633 0 25.41 0 16.5S7.665.367 17.121.367 34.243 7.59 34.243 16.5 26.577 32.633 17.12 32.633zm-.053-13.622v-2.383h4.148v-2.041h-4.148v-.642c0-.321.409-.665.793-.665h3.355v-2.04H17.86c-1.621 0-2.92 1.178-2.92 2.705v5.066c0 .332-.426.71-.799.71H10.05v2.04h4.093c1.615 0 2.926-1.217 2.926-2.75zm-1.261 7.66c2.86 0 5.204-2.012 5.567-4.687 2.856-.28 5.052-2.634 5.052-5.459v-4.123c0-3-2.482-5.372-5.618-5.372h-5.031c-3.154 0-5.727 2.39-5.727 5.372v4.338h2.425v-4.338c0-1.805 1.48-3.284 3.302-3.284h5.031c1.799 0 3.193 1.454 3.193 3.284v4.123c0 1.813-1.378 3.209-3.193 3.209h-1.61V21.3c0 1.785-1.55 3.284-3.391 3.284H10.05v2.087h5.757z"/>
    </g>
</svg>
