<svg xmlns="http://www.w3.org/2000/svg" xmlns:xlink="http://www.w3.org/1999/xlink" width="523" height="183" viewBox="0 0 523 183">
    <defs>
        <path id="a" d="M.203.055H103.15v93.261H.203z"/>
        <path id="c" d="M.248.072h65.765V84.84H.248z"/>
    </defs>
    <g fill="none" fill-rule="evenodd">
        <rect width="523" height="91" y="92" fill="#D5EDEC" rx="45.5"/>
        <path stroke="#FF9200" stroke-width="2" d="M381.862 44.495l19.049 76.22"/>
        <path stroke="#FFBA00" stroke-width="2" d="M428.688 23.519l-27.471 96.244"/>
        <path stroke="#B3BA00" stroke-width="2" d="M468.021 44.495l-67.186 76.81"/>
        <path fill="#FFDECF" d="M415.424 86.519c1.939-3.285 3.069 3.197 2.901 4.756-1.272.191-2.574.088-3.86.103-.356-1.49.198-3.569.959-4.86m-37.32 55.114c-.007 2.534 1.171 9.428 2.952 11.339 2.372 2.542 7.021 1.51 9.447 4.109 1.74 1.865.663 4.15 1.78 5.881 3.696 5.689 7.116 2.95 11.771 1.148 2.21-.855 4.706-.574 7.018-.466 4.519.209 9.029.796 13.548 1.03 4.78.247 9.244-.151 13.831.957 3.157.763 7.043 3.657 9.006-.322.252-.51.365-1.137.52-1.72l-.458-4.976-1.375-34.863.583-15.392a18.645 18.645 0 0 0-5.874-.965c-8.57-.019-14.528-4.558-15.14-5.415-1.281-1.792-.419-5.286.934-8.536-1.959-2.398.898-6.79 2.278-8.642.864-1.162 2.062-3.174 1.107-4.559-.735-1.066-2.045-.865-2.85.007-.537.58-.663 3.401-1.978 2.836-.521-.227-.338-1.282-.312-1.791.077-1.57.15-3.231.107-4.873-.03-1.195-.123-2.378-.315-3.508-2.777 1.06-5.567.896-8.477 1.037-1.463.071-3.069-.196-4.39.515-.468.251-.889.52-1.276.815-.496.444-.983.906-1.421 1.393-.144.176-.284.36-.422.557-.753 1.077-1.276 2.33-1.47 3.605-.056.377-.094.8-.18 1.184-.014-.01-.026-.026-.04-.038-.116 1.678.037 3.422.128 5.016.138 2.407-.095 6.456 1.201 8.972.717 1.39 1.9 2.312 3.867 2.234.093 1.686.136 2.342.045 4.028-3.22 1.985-7.286 5.38-11.24 6.492-4.934 1.385-10.3-.216-14.892 2.633-2.003 1.242-3.942 3.404-4.835 5.573-.657 1.6-2.394 4.41-2.501 6.143-.139 2.224 1.01 5.484 1.436 7.697.419 2.182.065 3.031-.962 4.981-1.101 2.087-1.144 3.507-1.151 5.884"/>
        <path fill="#E8AB95" d="M418.325 91.275c-1.272.191-2.574.088-3.86.103-.356-1.49.198-3.569.959-4.86 1.939-3.284 3.069 3.198 2.901 4.757"/>
        <path fill="#A67C52" d="M435.581 70.636c-1.142-2.667-2.926-5.803-6.136-4.326.607-.28-1.2-1.653-1.396-1.804-1.063-.815-2.215-1.17-3.53-1.476-2.744-.639-5.838-.283-8.14 1.358-.915.653-1.843 1.336-2.799 1.907-.737.442-1.813.998-2.7.727-.747-.227-1.197-1.006-1.554-1.634-.77.439-1.524 1.206-1.925 1.99-.356.694-.545 1.68-.565 2.454-.71.089-1.824-1.222-1.885-1.865-.118.183-.286.62-.395.896-1.31 3.305-.5 7.708.988 10.835.354.742.837 1.71 1.465 2.281.07-1.026.242-2.027.589-2.954.317-.85.867-1.63 1.522-2.354a8.11 8.11 0 0 1 1.421-1.393 9.516 9.516 0 0 1 1.276-.815c1.32-.711 2.927-.444 4.39-.515 2.91-.14 5.7.023 8.477-1.036.193 1.13.284 2.313.315 3.507.043 1.642-.03 3.304-.107 4.873-.027.51-.21 1.565.312 1.79 1.315.566 1.44-2.254 1.978-2.835.805-.872 2.115-1.073 2.85-.007.956 1.385-.243 3.397-1.107 4.559-1.38 1.853-4.236 6.244-2.278 8.642 1.322-1.904 2.575-3.863 4.338-5.404 1.632-1.427 3.509-2.504 4.428-4.574 1.737-3.91 1.86-8.88.168-12.827"/>
        <path fill="#A67C52" d="M409.12 76.671c-.144.176-.284.36-.421.557-.754 1.077-1.278 2.33-1.47 3.605-.058.377-.096.8-.18 1.184-.014-.011-.027-.026-.04-.038.07-1.027.242-2.028.589-2.954.317-.85.867-1.63 1.522-2.354"/>
        <path fill="#F4C4B3" d="M446.734 108.325c5.092.602 8.246 4.974 9.782 9.45 1.578 4.599-.557 10.323 2.063 14.395 1.254 1.95 2.521 3.221 2.886 5.483.489 3.025-.815 14.37-3.99 15.749-3.306 1.437-6.443-2.161-8.014-4.44-3.055-4.432-4.245-7.184-5.054-12.686-.676-4.607-2.581-8.881-2.616-13.603-.027-3.727-.451-7.897.897-11.46.896-2.368 2.384-3.083 4.046-2.888M394.503 151.79c.195-3.519 1.03-6.986 1.398-10.541.36-3.466 1.217-6.992 1.218-10.482 0-2.247.529-7.902-1.387-9.038-2.182 3.819-3.535 7.294-7.995 9.094-1.454.587-4.24.609-3.687 2.897.466 1.934 4.273 2.853 3.992 4.815-.4 2.783-8.348 3.037-6.868 7 .625 1.676 3.671 1.728 4.638 3.57 1.068 2.038-.136 3.663.211 5.71.954 5.616 8.308 1.276 8.467-2.722.003-.1.008-.201.013-.303"/>
        <path fill="#8ACBDE" d="M389.153 156.704c.428-5.905 4.577-10.56 6.033-16.163 1.965-7.556 1.556-17.21-.448-24.696-.183-.683-2.382-6.707-3.016-6.14 1.796-1.616 4.79-1.224 7.006-1.974 2.204-.745 7.238-.99 8.928-2.545-.811 7.03 3.638 16.392 11.529 16.386 3.58-.003 6.623-2.223 8.679-4.967 1.238-1.656 2.174-3.522 2.864-5.461.38-1.063.645-1.936.623-3.064-.007-.353-.943-3.141-1.31-3.206 1.356.275 4.069 1.022 6.12 1.515 1.878.45 4.921.529 6.85.93 1.17.242 2.403.324 3.403.97-2.93 3.396-1.874 7.956-1.874 12.053 0 4.191.145 8.008.924 12.021 1.391 7.185 2.228 14.3 3.709 21.444.357 1.725-.968 26.465 1.219 28.845l-15.602.31h-47.184c1.433-4.12 1.393-17.713 1.41-21.615.007-1.524.021-3.062.137-4.643z"/>
        <path fill="#C1272D" d="M469.673 81.416l-.003-.01c-2.38-5.755-9.132-8.475-14.93-6.132-5.799 2.341-8.63 8.93-6.25 14.686.086.206.158.412.254.61 2.363-1.85 5.216-3.318 7.843-4.38 4.16-1.679 8.13-3.715 13.086-4.774"/>
        <path fill="#CCC" d="M456.582 86.193c-2.669 1.077-5.462 2.522-7.868 4.39 2.588 5.338 9.014 7.81 14.695 5.516 5.889-2.378 8.734-8.968 6.36-14.722-4.573.904-8.96 3.108-13.187 4.816"/>
        <path fill="#333" d="M469.145 80.292c-.892-.015-1.891.204-2.602.415-1.508.447-3.178 1.238-4.734 1.375-1.062.093-1.59-.807-2.754-.928-2.694-.281-3.253 2.059-4.133 3.818-.84 1.68-3.873 2.246-5.747 3.328-.274.16-.655.442-1.06.796.095.297.194.594.316.889.244.592.545 1.142.875 1.67 1.364-1.447 3.502-2.6 5.41-2.91 2.103-.34 4.373 1.56 6.436-.058.772-.603.78-1.722 1.324-2.421 1.564-2.01 5.477-2.388 7.683-3.394.012-.004-.011.005 0 0a11.032 11.032 0 0 0-.478-1.47c-.16-.384-.34-.753-.536-1.11"/>
        <path fill="#FFF" d="M456.296 85.28c.519 3.82 6.308 2.435 5.306-.767-.68-2.174-5.74-2.423-5.306.766"/>
        <path fill="#E6E6E6" d="M418.338 59.514c1.316-.817 2.7-1.317 4.73-1.446 7.043-.447 14.353 7.089 7.764 12.927-2.654 2.352-4.097.795-6.897-.52-5.63-2.643-18.108-.881-8.654-8.637 1.14-.935 2.08-1.718 3.057-2.324"/>
        <path fill="#C1272D" d="M428.201 73.796c1.881 1.695 4.175 3.1 5.372 5.217 1.025 1.811.946 3.972.807 6.055 6.252-3.381 6.444-9.729 4.014-15.5-.565-1.342-1.262-2.924-2.284-4.005-.462-.487-2.57-3.581-3.927-3.214 1.315 3.971-1.822 9.107-5.591 9.726.464.623 1.016 1.187 1.61 1.72"/>
        <path fill="#C1272D" d="M427.127 72.147c-2.12-1.422-6.08-4.86-9.364-6.732-4.368-2.491-8.009-2.988-13.355-2.748-5.376.242-9.22 3.791-3.815 7.727 4.766 3.472 7.147.826 12.487.623 3.903-.149 10.093-.096 15.608 3.2V71.95l-1.561.198z"/>
        <path fill="#FFF" d="M438.054 126.34c.917.556 1.837 1.042 2.757 1.402-1.953-4.577-4.016-9.672-5.31-14.458-1.21-4.473-1.333-8.37-4.6-12.1-1.7-1.942-3.176-2.808-5.78-2.837-.138 5.473-1.119 10.684-2.213 16.053-.27 1.325-.333 2.693-.67 4.005-.327 1.271-1.105 2.12-1.525 3.305 1.437-.948 3.294-1.287 4.975-.834 4.53 1.221 8.438 3.083 12.366 5.464"/>
        <path fill="#FFF" d="M416.238 112.81c1.291 2.568 4.681 6.023 4.657 8.904-1.7-.834-4.77.276-6.263 1.094-2.55 1.399-4.681 3.634-6.877 5.552-.856-2.418-.679-5.78-.919-8.4-.455-4.958-2.435-18.474 5.28-19.453.166-.021.472 1.829.685 3.173.108.683.193 1.235.223 1.344.774 2.83 1.894 5.163 3.214 7.787"/>
        <path fill="#FCEAE3" d="M462.61 114.146c2.345-.096 5.65-.423 6.103-.766 1.337-1.011 3.43-3.117 3.407-4.91-.023-1.82-1.02-3.884-1.158-5.801-1.67-.217-2.24.45-3.117 1.584-1.166 1.508-2.287 1.867-4.19 1.449-1.402-.308-2.707-.98-4.191-1.01-2.117-.042-4.567 1.708-5.526 3.465-2.305 4.225-2.834 9.064-4.044 13.625-1.5 5.659-3.027 10.706-3.128 16.525-.082 4.737-1.604 8.266 2.891 11.598 1.5 1.113 2.93 3.855 4.248 4.561 3.38 1.812 4.351-1.167 5.076-3.451 1.579-4.978 5.028-7.382 4.033-13.055-.706-4.028-.394-8.183-1.255-12.185-.882-4.1-.946-7.567-1.52-11.722.019.13 1.04.15 2.37.093"/>
        <path fill="#FFF" d="M461.114 116.05c-.008.111-.018.223-.028.334-.056.594-.009 1.228-.139 1.817-.287 1.29-1.302 2.287-2.512 2.745-1.327.502-2.319.411-3.676.035-1.252-.348-3.133-.993-3.761-2.243-.493-.983.262-2.233.289-3.265.02-.84.25-1.69.399-2.513.153-.854.258-1.779.853-2.466.24-.277.678-.605 1.057-.578-.562.71-.445 1.647.077 2.343.26.347.614.62.936.9.422.365.83.39 1.356.56a5.68 5.68 0 0 0 1.757.277c.55 0 1.095-.114 1.644-.138.537-.025 1.525-.027 1.525-.027-.077.025.174.7.187.774.088.47.075.965.036 1.445"/>
        <path fill="#474843" d="M398.266 129.899c-.885-1.469-1.674-2.989-2.55-4.47-.859-1.453-1.927-2.777-2.776-4.24-.633-1.088-2.598-3.436-1.923-4.796.532-1.07 2.336-.831 3.322-.894 2.015-.126 4.035-.04 6.05-.011 1.152.016 2.61-.208 3.667.358 1.223.656 1.762 2.042 2.6 3.056a23.685 23.685 0 0 1 2.243 3.227c1.622 2.783 3.157 5.613 4.783 8.394.745 1.275 3.033 4.31 2.335 5.875-.606 1.362-3.144.938-4.298.902-2.063-.065-4.278-.297-6.39-.546-1.48-.173-2.896-.291-3.865-1.528-.889-1.135-1.394-2.598-2.216-3.794a29.598 29.598 0 0 1-.982-1.533"/>
        <path fill="#333" d="M403.298 136.546c.086.038.175.074.265.108 2.251.831 5.049.576 7.41.66 1.252.045 4.104.314 3.81-1.492-.167-1.019-.983-1.885-1.509-2.74-.944-1.531-1.735-3.148-2.592-4.734-1.474-2.721-2.684-5.674-4.655-8.073-.923-1.123-1.795-2.665-3.198-3.209-2.275-.882-5.794-.296-8.145-.262-1.927.028-3.226.123-3.487-.67-1.401.918 1.808 5.38 2.583 6.787 1.284 2.328 2.3 3.225 3.645 5.517a344.725 344.725 0 0 0 3.184 5.308c.715 1.173 1.42 2.233 2.69 2.8"/>
        <path fill="#474843" d="M400.176 122.1l.14.002c.34 0 .488-.067.515-.227.025-.142-.109-.364-.216-.543-.04-.069-.078-.132-.106-.186a4.73 4.73 0 0 0-.67-.991c-.202-.23-.455-.25-.74-.25l-.315.003c-.387.002-.787.003-1.132.075-.178.038-.288.112-.33.223-.05.13.001.314.142.502.11.149.201.33.297.521.152.303.308.614.545.773.179.12.42.18.74.18.206 0 .406-.022.61-.048.094-.012.186-.024.274-.032a1.765 1.765 0 0 1 .246-.003m-1.967.045c-.274-.186-.44-.519-.602-.84-.092-.185-.179-.358-.282-.495-.178-.24-.237-.475-.165-.664.044-.114.159-.266.456-.328.363-.076.772-.077 1.168-.078l.314-.002c.317 0 .621.023.87.305.27.307.518.671.697 1.03.024.05.06.11.098.173.128.213.272.454.238.658-.062.368-.498.368-.684.368l-.144-.002a2.06 2.06 0 0 0-.226.002l-.27.03c-.202.025-.416.05-.63.05-.356 0-.63-.067-.838-.207"/>
        <path fill="#474843" d="M398.532 120.365c-.144.047-.224.12-.244.227-.048.254.243.631.455.807.167.137.464.277.705.277.111 0 .193-.029.246-.087.062-.069.086-.18.07-.336-.05-.447-.582-.92-1.035-.92-.07 0-.135.011-.197.032m.1 1.164c-.233-.192-.58-.625-.513-.969.023-.116.102-.272.36-.357a.806.806 0 0 1 .25-.039c.549 0 1.145.53 1.205 1.071.022.204-.015.36-.112.467-.085.095-.214.143-.374.143-.295 0-.63-.164-.815-.316"/>
        <path fill="#474843" d="M398.594 120.706c.045-.565.964.111.957.505-.005.318-.248.304-.477.153-.178-.117-.498-.42-.48-.658"/>
        <path fill="#736357" d="M400.9 119.933c-.04-.062-.078-.109-.102-.117-.12-.05-.408-.024-.538.014.111.166.111.166.17.241.052.065.097.19.169.234.085.052.154.024.245.026a.76.76 0 0 0 .297-.05c-.029.01-.146-.206-.241-.348"/>
        <path fill="#736357" d="M400.866 120.245a.852.852 0 0 0 .123-.009l-.067-.108a4.471 4.471 0 0 0-.094-.149.606.606 0 0 0-.062-.086.457.457 0 0 0-.166-.021c-.067 0-.137.007-.198.016.044.062.055.078.096.13.02.026.04.06.06.097a.42.42 0 0 0 .087.117c.04.026.078.02.118.016.024 0 .047-.003.072-.003h.031zm-.313.131c-.065-.04-.106-.113-.144-.178a.73.73 0 0 0-.046-.075c-.061-.078-.061-.078-.174-.247a.078.078 0 0 1-.01-.074.085.085 0 0 1 .057-.05c.093-.027.239-.041.364-.041.1 0 .177.017.23.039.041.017.08.07.142.165.031.045.065.127.097.18.036.059.085.192.107.22.02.008.036.137.046.159.016.042-.005.314-.05.33-.09.038-.194.501-.306.501h-.031c-.02 0-.039-.444-.057-.442-.02.001-.042-.441-.063-.441a.302.302 0 0 1-.162-.046z"/>
        <path fill="#474843" d="M402.087 121.87a6.888 6.888 0 0 0-.254-.45c-.058-.099-.116-.197-.172-.296l-.021-.04c-.1-.185-.225-.38-.43-.38h-.026c-.027.003-.06.002-.097 0l-.068-.002c-.08 0-.108.014-.108.014-.014.06.125.28.171.353.028.043.05.08.063.105.028.055.06.11.091.165.053.09.106.182.146.276.014.034.024.067.035.101.032.101.052.154.127.18.058.019.136.029.237.029.07 0 .14-.005.205-.01l.07-.003.048-.004-.017-.038m-.597.187c-.162-.052-.204-.183-.237-.29-.01-.028-.019-.057-.03-.084-.035-.085-.087-.17-.136-.255-.033-.057-.065-.11-.095-.168-.011-.02-.032-.044-.055-.083-.155-.243-.263-.42-.156-.531.084-.09.216-.04.313-.035.02.001.039.077.056.077h.022c.352 0 .526.22.62.39l.021-.035c.055.097.111.195.169.291.088.148.18.301.26.463.036.07.065.142.026.205-.038.065-.118.076-.203.08l-.069.003c-.068.004-.142.01-.215.01a.895.895 0 0 1-.291-.038M396.028 120.166l-.069.004c-.104.006-.211.011-.3.042-.034.013-.044.029-.047.043-.043.131.198.468.288.596.03.04.055.075.069.097a6.402 6.402 0 0 1 .405.766c.083.186.168.38.288.521.04.048.124.072.248.072.133 0 .287-.03.399-.05l.05-.01a.346.346 0 0 1 .056-.008c.094-.013.1-.022.104-.043.008-.051-.054-.158-.096-.228a1.11 1.11 0 0 1-.06-.116 5.193 5.193 0 0 0-.514-.922 1.664 1.664 0 0 1-.174-.337c-.049-.114-.094-.222-.161-.312-.063-.084-.163-.12-.332-.12-.053 0-.105.003-.154.005m.502 2.176c-.136-.159-.226-.363-.313-.56-.028-.063-.055-.126-.084-.184a6.178 6.178 0 0 0-.311-.562 1.973 1.973 0 0 0-.061-.088c-.185-.257-.377-.548-.314-.745a.229.229 0 0 1 .156-.15c.112-.04.23-.046.347-.052l.067-.003c.052-.004.11-.007.165-.007.14 0 .344.019.47.19.08.104.13.227.181.347.048.11.093.215.157.305.204.29.388.62.53.953.011.027.031.061.053.097.063.109.134.23.115.34-.025.153-.165.172-.249.184l-.048.007-.05.008c-.118.023-.282.055-.43.055-.181 0-.305-.044-.381-.135"/>
        <path fill="#333" d="M408.872 123.86c-.406-.418-.604-1.099-.92-1.57-.18-.27-.507-.625-.351-.977.4-.062.787.72.948 1.017.214.392.51.809.665 1.222.087.233.078.693-.276.372a.912.912 0 0 1-.066-.064"/>
        <path fill="#FCEAE3" d="M379.015 150.614c.227 2.48 1.956 3.47 2.826 5.498.268.624-.176 1.412.168 2.038.573 1.042 2.668 1.68 3.894 1.556 1.484-.151 2.75-1.305 4.193-1.559 1.533-.27 3.113.037 4.55-.735 4.436-2.38 4.102-8.89 5.55-12.918.712-1.983 1.113-4.1 2.308-5.697 2.693-3.603-2.047-5.415-1.335-8.976.613-3.063 2.567-2.431-.576-5.127-1.254-1.075-3.216-4.154-5.042-4.197-1.818-.043-2.796 3.018-3.317 4.512-.645 1.849.5 2.23 1.535 3.756.702 1.035 2.262 3.401 2.272 4.68.013 1.615-2.366 3.33-3.313 4.49-1.459 1.789-2.543 3.125-4.696 4.18-2.119 1.04-4.52 1.604-6.506 2.9a5.395 5.395 0 0 0-1.547 1.529c-.78 1.173-1.097 2.62-.964 4.07"/>
        <path fill="#FFF" d="M401.366 143.251c-2.416 3.505-9.864-3.532-8.98-5.341.32-.658 1.18-1.659 1.491-2.305.344-.71.53-.756.8-1.468.624-.21 1.168-.384 1.168-.384.068 2.136.868 2.825 2.574 3.95 1.412.93 3.454 1.432 4.658-.184.654 1.004-.89 4.543-1.71 5.732"/>
        <g>
            <path fill="#FF9200" d="M394.324 43.594c0 1.89-1.55 3.42-3.461 3.42h-17.385c-1.912 0-3.46-1.53-3.46-3.42v-17.18c0-1.888 1.548-3.42 3.46-3.42h17.385c1.912 0 3.46 1.532 3.46 3.42v17.18z"/>
            <path fill="#B3BA00" d="M487.837 43.594c0 1.89-1.549 3.42-3.46 3.42H466.99c-1.912 0-3.46-1.53-3.46-3.42v-17.18c0-1.888 1.548-3.42 3.46-3.42h17.386c1.911 0 3.46 1.532 3.46 3.42v17.18z"/>
            <path fill="#FFBA00" d="M440.992 21.753c0 1.889-1.548 3.418-3.46 3.418h-17.386c-1.911 0-3.46-1.53-3.46-3.418V4.573c0-1.89 1.549-3.42 3.46-3.42h17.386c1.912 0 3.46 1.53 3.46 3.42v17.18z"/>
            <path fill="#FFF" d="M482.419 33.721h-1.08v-2.843a1.43 1.43 0 0 0-1.438-1.422h-2.878V28.39c0-.98-.806-1.777-1.799-1.777-.992 0-1.798.796-1.798 1.777v1.066h-2.878c-.795 0-1.431.636-1.431 1.422l-.004 2.702h1.076c1.07 0 1.942.86 1.942 1.919 0 1.059-.871 1.919-1.942 1.919h-1.076l-.003 2.701a1.43 1.43 0 0 0 1.438 1.422h2.734v-1.066c0-1.06.87-1.92 1.942-1.92s1.943.86 1.943 1.92v1.066h2.734a1.43 1.43 0 0 0 1.438-1.422v-2.842h1.08a1.79 1.79 0 0 0 1.798-1.778c0-.981-.806-1.778-1.798-1.778M428.839 12.312a.858.858 0 0 0-.86.85c0 .469.387.85.86.85a.855.855 0 0 0 .861-.85.855.855 0 0 0-.861-.85zm0-6.882c-4.323 0-7.825 3.46-7.825 7.732 0 4.269 3.502 7.733 7.825 7.733 4.324 0 7.826-3.464 7.826-7.733 0-4.272-3.502-7.732-7.826-7.732zm1.714 9.425l-6.41 2.947 2.982-6.333 6.41-2.947-2.982 6.333zM389.408 30.235h-14.475c-.885 0-1.609.716-1.609 1.59v6.357c0 .875.724 1.59 1.61 1.59h14.474c.885 0 1.61-.715 1.61-1.59v-6.358c0-.873-.725-1.589-1.61-1.589zm-8.042 5.564h-2.412v2.383h-1.608V35.8h-2.413v-1.59h2.413v-2.385h1.608v2.385h2.412v1.59zm3.62 1.59a1.198 1.198 0 0 1-1.207-1.194c0-.659.539-1.191 1.207-1.191.667 0 1.206.532 1.206 1.19 0 .661-.539 1.194-1.206 1.194zm3.216-2.385a1.197 1.197 0 0 1-1.206-1.192c0-.66.539-1.192 1.206-1.192.668 0 1.206.533 1.206 1.192 0 .66-.538 1.192-1.206 1.192z"/>
        </g>
        <text fill="gray" font-family="NotoSansCJKkr-Bold, Noto Sans CJK KR" font-size="9" font-weight="bold" transform="translate(370 1)">
            <tspan x="29.279" y="161">퍼즐 매니아</tspan> <tspan x="32.258" y="174">30대 남성</tspan>
        </text>
        <g>
            <path fill="#1279EE" d="M228.788 43.142c0 1.893-1.554 3.427-3.472 3.427h-17.44c-1.918 0-3.472-1.534-3.472-3.427V25.927c0-1.893 1.554-3.428 3.471-3.428h17.44c1.919 0 3.473 1.535 3.473 3.428v17.215z"/>
            <path fill="#15A26E" d="M322.596 43.142c0 1.893-1.554 3.427-3.47 3.427h-17.442c-1.917 0-3.47-1.534-3.47-3.427V25.927c0-1.893 1.553-3.428 3.47-3.428h17.441c1.917 0 3.471 1.535 3.471 3.428v17.215z"/>
            <path fill="#2894B1" d="M275.82 21.244c0 1.909-1.567 3.456-3.5 3.456h-17.584c-1.933 0-3.5-1.547-3.5-3.456V3.886c0-1.909 1.567-3.455 3.5-3.455h17.585c1.932 0 3.5 1.546 3.5 3.455v17.358z"/>
            <path fill="#FFF" d="M301.63 28.033c-1.683 2.04-1.383 4.949.683 6.611s5.013 1.365 6.697-.674c.379-.458.658-.961.827-1.48l.379 3.664 1.218.979c-1.057 1.95-.605 4.362 1.21 5.822 2.067 1.662 5.013 1.365 6.697-.673 1.684-2.04 1.384-4.948-.683-6.61l-8.553-6.882 2.68-.27 2.649 2.131 1.202-1.456-3.254-2.617-5.397.542c-2.032-1.392-4.762-1.016-6.355.913zm13.42 12.01l1.203-1.459-2.082-1.674c1.002-.587 2.34-.543 3.285.217 1.202.968 1.39 2.78.41 3.967-.98 1.188-2.816 1.372-4.019.404-.944-.759-1.26-2.043-.878-3.13l2.08 1.674zM303.105 29.22a2.878 2.878 0 0 1 4.018-.404 2.791 2.791 0 0 1 .41 3.966 2.878 2.878 0 0 1-4.018.404 2.792 2.792 0 0 1-.41-3.966zM212.669 36.874l-3.912 3.859 1.304 1.287 3.042-3.002h1.738l-2.172-2.144zm5.648-11.581c-.956 0-1.738.771-1.738 1.715 0 .943.782 1.716 1.738 1.716s1.738-.773 1.738-1.716c0-.944-.782-1.715-1.738-1.715zm5.215 17.164l-2.608 2.565-2.598-2.582v-1.278l-6.17-6.081c-.27.042-.53.06-.791.06v-1.854c1.442.026 3.137-.746 4.058-1.75l1.217-1.33c.165-.18.373-.325.599-.429.252-.12.54-.197.835-.197h.026c1.077.008 1.955.875 1.955 1.939v4.932c0 .72-.304 1.382-.8 1.853l-3.11-3.07v-1.948a8.48 8.48 0 0 1-1.99 1.192l5.465 5.396h1.304l2.608 2.582zM270.088 6.853a1.43 1.43 0 0 0-1.352-.95h-2.38v-1.88h-5.712v1.88h-2.38a1.43 1.43 0 0 0-1.352.95l-1.98 5.628V20c0 .516.428.94.952.94h.952a.945.945 0 0 0 .952-.94v-.94h11.424V20c0 .516.428.94.952.94h.952a.946.946 0 0 0 .952-.94V12.48l-1.98-5.628zm-11.824 9.388c-.79 0-1.428-.63-1.428-1.41 0-.78.638-1.41 1.428-1.41.79 0 1.428.63 1.428 1.41 0 .78-.638 1.41-1.428 1.41zm10.472 0c-.79 0-1.428-.63-1.428-1.41 0-.78.638-1.41 1.428-1.41.79 0 1.428.63 1.428 1.41 0 .78-.638 1.41-1.428 1.41zm-11.9-4.699l1.428-4.23h10.472l1.428 4.23h-13.328z"/>
            <path stroke="#1279EE" stroke-width="2" d="M271.355 90.391L225.92 43.586"/>
            <path stroke="#2894B1" stroke-width="2" d="M263.187 21.639l8.168 68.752"/>
            <path stroke="#15A26E" stroke-width="2" d="M301.392 43.895l-30.037 46.496"/>
            <g>
                <path fill="#FFDECF" d="M265.06 101.603c-.194.171-.4.333-.62.484-2.86 1.958-6.818 2.297-10.178 1.846-1.522-.204-8.92-3.574-9.597-3.15 2.049-1.28 3.947-1.485 4.813-3.959 1.427-4.08-1.862-6.186-4.473-8.344-1.173-.968-2.008-1.739-3.354-2.448-1.357-.715-2.472-1.96-3.134-3.325-1.53-3.158-.36-5.87.134-9.041.385-2.47.128-4.289 1.979-6.322 3.786-4.158 10.793-5.402 16.154-4.294 6.647 1.374 9.101 8.594 8.98 14.429-.123 5.852-.113 10.855-4.527 15.243 1.88 4.518 6.81-.297 9.888-.277-2.912 2.484-3.24 6.656-6.065 9.158"/>
                <path fill="#603813" d="M266.426 77.963l-.02.094c-.278 1.19-.776 2.356-1.081 3.524.166-1.187.88-3.285.36-4.426-.582-1.279-1.234-.918-2.361-1.642-2.087-1.34-2.793-4.05-4.983-5.249-2.053-1.124-4.91-1.375-5.535 1.43-2.873-4.319-6.386 3.843-6.883 6.224-.294 1.413-.962 2.505-1.453 3.816-.015-.586-.51-1.56-1.053-1.861-.59-.33-1.166-.37-1.792-.009-1.37.787-1.078 2.686-.566 3.911.454 1.088 1.348 1.676 2.206 2.419.498.432 1.396 2.04 1.848 2.233-1.196-.507-2.136-1.524-3.275-2.145-1.322-.718-2.638-1.502-4.002-2.155-1.662-.797-3.655-2.158-5.484-2.47.523-.62.657-1.348.95-2.08 1.376-3.436.983-7.349 2.172-10.811 1.52-4.424 7.74-10.306 12.815-7.933 2.645-3.543 7.481-3.489 10.862-.742 1.696 1.377 2.923 3.614 3.985 5.47 1.08 1.881 2.153 2.962 3.912 4.152-1.514 2.482-.057 5.599-.622 8.25"/>
                <path fill="#383838" d="M247.43 82.453c.293.84.427 1.378 1.175 1.879.784.524 2.757.183 3.623.176 2.479-.02 3.573.21 3.485-2.435-.03-.894.027-1.82-.656-2.409-.813-.704-2.115-.473-3.085-.363-1.195.137-5.118-.007-5.471 1.611"/>
                <path fill="#F15A24" d="M247.173 80.71c.308.25.447.672.614 1.18.04.122.084.255.133.397.056.161.11.335.165.51.207.663.352.804.81 1.11.51.342 1.549.308 2.307.28.18-.006.87-.188 1.02-.19 1.175-.01 2.042-.103 2.452-.525.33-.337.555-.359.522-1.383l-.007-.286c-.018-.738-.032-1.375-.472-1.755-.57-.493-1.56-.374-2.43-.269l-.256.03c-.265.03-1.13.217-1.525.227-1.075.028-2.778.073-3.333.673m1.854 4.36a2.498 2.498 0 0 1-.714-.315c-.758-.51-.96-.834-1.216-1.658-.052-.165-.103-.327-.155-.477-.436-1.238-1.4-2.199.077-3.05.984-.566 2.36-.527 3.46-.554.37-.009 1.213-.195 1.433-.22l.249-.029c.978-.118 2.32-.28 3.237.513.783.678.805 1.647.824 2.5l.007.277c.045 1.334-.266 1.566-.809 2.123-.663.682-1.71.828-3.188.84-.142.001-.825.185-.994.19-.694.024-1.512.052-2.211-.14"/>
                <path fill="#383838" d="M255.715 79.71c.21-.382 1-.662 1.408-.442.771.417 1.327 1.769 1.721 2.52.173.326.304.8.52 1.087.391.523 1.261.324 1.881.161.841-.22 2.821-.77 3.583-1.206.646-.37.442-1.373.43-1.978-.018-.803-.159-1.692-.653-2.356-.27-.361-.545-.213-.937-.13-1.094.234-3.082.621-4.153.944-.686.207-2.073.39-2.392.958"/>
                <path fill="#F15A24" d="M257.945 79.277c.482.512.843 1.242 1.15 1.86.073.15.143.29.208.413.079.15.146.314.21.471.085.21.174.427.266.55.202.27 1.024.053 1.333-.028.838-.22 2.766-.759 3.458-1.157.258-.148.218-.735.19-1.166a9.128 9.128 0 0 1-.02-.357c-.02-.905-.205-1.6-.552-2.064l-.019-.023c-.047.006-.132.028-.197.043-.062.016-.127.031-.195.047-1.21.254-3.16.647-4.11.933-.167.05-.374.1-.596.153-.288.068-.782.186-1.126.325m1.716 4.379a1.294 1.294 0 0 1-.712-.477c-.171-.228-.285-.507-.395-.774-.055-.136-.108-.27-.167-.382-.07-.13-.143-.28-.22-.436-.317-.639-.794-1.601-1.292-1.871h-.001c-.029-.017-.152-.033-.333.02-.213.063-.346.172-.37.217a.521.521 0 0 1-.702.207.507.507 0 0 1-.209-.693c.172-.314.542-.579.988-.71.247-.071.483-.093.699-.067.454-.392 1.204-.57 1.881-.732.2-.045.386-.09.536-.135.98-.296 2.957-.694 4.196-.956.054-.011.107-.025.157-.038.325-.082.87-.217 1.304.365.483.647.729 1.513.754 2.647.002.095.008.2.016.313.044.656.111 1.65-.703 2.117-.776.443-2.779 1.015-3.71 1.259-.405.106-1.113.292-1.717.126"/>
                <path fill="#E8AB95" d="M256.408 85.85c-.665-1.602-1.722-8.711 1.156-5.714 1.13 1.176 2.325 3.237 2.476 4.892-1.204.295-2.384.72-3.632.822"/>
                <g transform="translate(218.405 89.645)">
                    <mask id="b" fill="#fff">
                        <use xlink:href="#a"/>
                    </mask>
                    <path fill="#ACACAC" d="M50.977 2.92c-1.214 3.163-4.225 5.649-6.787 7.787-2.432 2.03-6.256 1.65-9.237 1.815-2.691.149-4.407-.791-5.782-3.021-2.179 1.285-4.524 1.594-6.641 2.696-8.51 4.43-15.1 12.126-19.296 20.568-4.26 8.57-5.618 22.354 6.74 24.778.244 5.206-.38 10.115-.864 15.285-.378 4.035-1.828 16.199-1.876 20.526h64.982c-.595 0 .476-17.803.56-19.015.5-7.226.931-14.512 1.657-21.714.321-3.178.858-6.33 1.356-9.483 1.983-12.554 12.579-17.611 22.228-24.662 5.433-3.97 7.6-10.9 1.247-15.292-2.74-1.895-5.397-1.071-8.618-.994-4.654.111-9.298.267-13.915.904-2.748.38-5.422.341-8.15-.074-3.356-.511-6.55-2.902-9.897-2.969-1.554-.03-7.068 1.2-7.707 2.865" mask="url(#b)"/>
                </g>
                <path fill="#474843" d="M267.13 102.267c-1.653.523-3.333.943-4.996 1.453-1.631.502-3.183 1.234-4.822 1.724-1.218.365-3.983 1.735-5.176.776-.938-.757-.297-2.443-.135-3.407.329-1.972.868-3.901 1.35-5.84.278-1.108.384-2.567 1.184-3.458.924-1.033 2.416-1.24 3.609-1.82a24.154 24.154 0 0 1 3.697-1.438c3.119-.938 6.264-1.783 9.382-2.725 1.43-.43 4.946-1.955 6.337-.93 1.213.894.22 3.247-.076 4.35-.53 1.977-1.26 4.062-1.98 6.045-.506 1.39-.941 2.729-2.384 3.384-1.323.602-2.883.761-4.253 1.285-.574.219-1.154.414-1.738.601"/>
                <path fill="#333" d="M274.84 98.91a3.8 3.8 0 0 0 .166-.233c1.332-1.984 1.708-4.741 2.324-7 .327-1.2 1.236-3.89-.616-4.012-1.047-.07-2.088.523-3.051.838-1.728.566-3.506.965-5.267 1.436-3.025.808-6.22 1.31-9.037 2.672-1.318.639-3.041 1.132-3.894 2.363-1.385 1.998-1.6 5.524-2.097 7.8-.406 1.866-.607 3.14-1.449 3.215.593 1.557 5.73-.534 7.297-.966 2.593-.714 3.709-1.491 6.278-2.275a334.937 334.937 0 0 0 5.969-1.875c1.322-.426 2.53-.866 3.377-1.964"/>
                <path fill="#474843" d="M257.857 100.97c.172-.073.372-.12.583-.17.332-.077.676-.158.887-.35.332-.304.394-.887.434-1.274l.03-.271c.01-.069.031-.152.054-.24.087-.334.136-.596-.075-.68-.111-.046-.373.018-.584.087-.077.023-.149.045-.209.058-.38.087-.783.238-1.133.424-.281.15-.352.386-.434.76l-.048.209c-.086.372-.173.756-.179 1.103-.003.162.037.281.118.35.095.082.231.08.328.064a.983.983 0 0 0 .228-.07m1.978-3.143c.365.148.256.573.176.88-.02.084-.04.159-.048.221-.012.082-.02.172-.03.266-.043.41-.109 1.035-.489 1.381-.244.223-.61.308-.963.392a3.203 3.203 0 0 0-.555.162c-.298.127-.571.118-.738-.025-.083-.07-.182-.212-.178-.48.007-.365.097-.757.184-1.137l.048-.21c.076-.349.15-.677.522-.872.362-.192.78-.349 1.174-.44.055-.013.123-.034.196-.057.118-.037.252-.078.379-.1a.624.624 0 0 1 .322.019"/>
                <path fill="#474843" d="M258.828 99.892c.258-.194.499-.577.437-.804-.033-.117-.15-.19-.349-.212a.778.778 0 0 0-.217.005c-.473.076-.987.522-.941.982.012.12.051.208.117.256.093.07.229.066.327.05.227-.037.478-.166.626-.277m.108-1.186c.343.04.46.206.495.337.096.346-.24.792-.498.985a1.75 1.75 0 0 1-.703.307c-.192.032-.347.005-.46-.08-.105-.082-.167-.207-.184-.376-.055-.558.527-1.076 1.086-1.164a.87.87 0 0 1 .264-.009"/>
                <path fill="#474843" d="M258.11 99.881c-.55-.172.328-.907.715-.811.312.077.245.308.045.497-.158.143-.53.383-.76.314"/>
                <path fill="#736357" d="M257.866 97.48c-.07.027-.126.05-.14.072-.075.106-.115.39-.107.523.188-.07.188-.07.277-.11.075-.035.209-.05.269-.11.071-.07.058-.145.08-.23a.734.734 0 0 0 .02-.299c.004.03-.239.095-.4.155"/>
                <path fill="#736357" d="M257.796 97.602c-.042.058-.076.216-.088.348.072-.026.089-.033.153-.062a.69.69 0 0 1 .106-.037c.05-.015.114-.032.136-.057.03-.028.035-.057.044-.11.004-.027.007-.053.014-.081a.745.745 0 0 0 .024-.14l-.122.04c-.057.019-.116.037-.167.056-.075.03-.099.044-.1.044v-.001zm.546-.37c.001.01.013.101.011.11a.83.83 0 0 1-.024.303.626.626 0 0 0-.012.063c-.01.063-.02.136-.091.208a.517.517 0 0 1-.21.098c-.032.009-.063.016-.085.027-.09.04-.09.04-.283.114a.102.102 0 0 1-.077-.01.096.096 0 0 1-.04-.07c-.007-.132.027-.45.12-.58.026-.035.071-.073.18-.115.054-.019.112-.06.172-.078.065-.023.147-.09.179-.107.014-.018.019-.11.042-.114l.002-.001h.002c.048-.007.105.106.114.152z"/>
                <path fill="#474843" d="M259.031 97.56c.05-.016.09-.031.116-.037.062-.014.124-.032.188-.052.1-.027.201-.058.306-.077.035-.006.069-.009.104-.011.094-.005.168-.018.206-.082.067-.107.096-.28.12-.42l.012-.07a.52.52 0 0 0 .007-.046l-.04.006c-.171.04-.342.093-.507.145-.109.034-.217.066-.33.097l-.044.014c-.272.072-.446.158-.476.352-.004.027-.013.058-.022.094-.016.057-.042.152-.03.175 0 0 .022.008.093-.002.091-.018.21-.055.297-.086m1.222-.802c.052.051.03.066.015.147l-.02.036c-.026.156-.062.33-.146.465-.07.114-.173.135-.243.145-.032.006-.067.003-.1.008-.03 0-.06 0-.092.005-.09.015-.188.043-.282.071-.066.02-.132.038-.196.053l-.102.033c-.092.032-.22.074-.327.091-.046.008-.19.032-.254-.064-.064-.095-.03-.22-.002-.32a.623.623 0 0 0 .019-.075c.052-.342.408-.44.6-.49l.046-.012c.109-.031.244.064.352.03.167-.053.37.022.548-.018a3.22 3.22 0 0 1 .052-.011c.031-.007.08-.147.132-.094M257.645 102.512a1.8 1.8 0 0 1 .112-.044c.215-.072.438-.133.643-.177.066-.017.136-.028.207-.043.203-.037.412-.076.578-.158.148-.075.161-.428.17-.617l.001-.055.003-.056c.01-.093.003-.1-.018-.109-.01-.006-.033-.009-.087 0-.05.008-.106.024-.158.038-.05.015-.094.03-.13.034a5.499 5.499 0 0 0-1.028.29c-.12.047-.247.068-.37.09-.125.021-.244.043-.348.087-.16.068-.192.267-.222.443l-.012.072a1.045 1.045 0 0 0-.026.294c.004.032.016.044.025.052.018.014.066.032.185.013.156-.026.349-.103.475-.154m1.762-1.417c.144.06.132.198.125.282a.376.376 0 0 0-.004.047l-.001.056c-.01.255-.025.642-.263.761-.19.094-.411.135-.626.176a5.812 5.812 0 0 0-.928.251 2.639 2.639 0 0 1-.513.166c-.142.022-.245.008-.316-.045a.24.24 0 0 1-.093-.17 1.2 1.2 0 0 1 .028-.341l.012-.071c.034-.197.078-.466.324-.571.123-.054.256-.076.386-.1.12-.02.234-.038.336-.08.33-.13.697-.233 1.063-.297.03-.005.067-.017.11-.028.058-.018.122-.037.18-.046a.32.32 0 0 1 .18.01"/>
                <path fill="#333" d="M263.548 90.672c-.505.299-1.224.338-1.76.534-.308.114-.732.35-1.047.12.028-.4.89-.596 1.22-.686.436-.117.914-.308 1.358-.366.251-.03.703.08.307.35a.85.85 0 0 1-.078.048"/>
                <path fill="#FFDECF" d="M246.27 113.244c-.148.51-.28 1.01-.429 1.406-1.373 3.663-3.001 6.8-5.068 10.06-2.093 3.3-3.051 7.843-4.287 11.533-1.136 3.393-2.853 8.417-5.721 10.826-4.339 3.643-6.426-1.251-8.27-4.858-2.5-4.889-1.103-9.768 1.821-14.063 2.616-3.843 5.579-7.76 8.609-11.293 2.38-2.773 5.87-4.462 7.958-7.386 1.981-2.774 2.69-6.21 4.336-9.163 2.558-4.587 9.787-4.224 14.343-3.374.894.167-1.104 4.949-1.456 5.455-1.238 1.78-1.831 1.986-3.844 2.251-3.282.433-2.114 2.71-3.923 4.64-.873.932-2.355 1.007-3.119 1.844-.443.486-.717 1.316-.95 2.122M281.04 97.181c.38-.29.817-.72 1.266-.757 1.971-.167 6.498 1.895 8.429 2.503 4.235 1.336 8.576 2.31 12.95 3.098 4.673.844 9.4 3.493 13.969 1.081 8.351-4.409 1.043-12.961-5.398-13.812-6.61-.873-13.21 1.28-19.702 1.279-3.296 0-7.044.489-10.214-.628-1.293-.456-2.714-2.223-3.829-2.425-1.966-.356-4.214 1.59-5.903 2.307-.235 1.64-3.57 6.91-1.909 7.98 1.313.843 3.022-1.285 4.287-1.429 1.271-.144 2.015.429 3.243.606 1.137.162 1.202.481 2.267.466.163-.002.346-.117.545-.269"/>
                <path fill="#D4D4D5" d="M263.78 122.017c-2.024.174-4.105.307-6.07.642-3.279.56-3.649 1.63-4.924 4.37-.42.9-.91 2.282-1.67 2.901-.959.779-2.674.668-3.846.943-2.475.58-4.279 5.545-1.979 7.284 1.762 1.331 6.858.797 8.136-.717.907-1.075.727-2.002 2.367-2.547 1.233-.41 2.832-.325 3.677.777.898 1.17.871 1.279 2.277 1.378 1.812.127 3.822-.164 5.592-.487.291-1.829.38-3.598 2.671-3.92 1.987-.278 2.978 1.274 3.22 3.04.024.175 6.361.355 7.115.163 2.381-.601 2.494-2.695 2.117-4.725-.543-2.92-2.818-3.56-5.636-3.71-2.46-.128-3.106-.347-4.65-2.384-2.617-3.456-4.163-3.37-8.397-3.008z"/>
                <path fill="#D4D4D5" d="M256.14 136.323c-1.841 1.227-1.84 6.209 1.723 4.682 3.705-1.586-.592-6.54-2.192-4.219M270.078 139.572c2.533.219 1.511-7.057-.46-4.571-.821 1.035-1.583 4.394.46 4.571"/>
                <path fill="#ACACAC" d="M257.746 124.988c-.826.149-1.516.227-1.991.975-.375.59-.512 1.295-.762 1.937-.189.483-.743 1.124-.405 1.622.662.976 3.17.087 4.06.012 1.137-.098 2.538.248 2.776-1.209.158-.96-.326-2.557-1.096-3.182-.673-.547-1.766-.301-2.582-.155M267.886 124.357c-1.309-.33-2.714-.772-4.033-.155-.881.412-.87 1.112-.626 1.971.258.912.345 2.094 1.357 2.356 1.333.345 2.824.272 4.204.272.705 0 1.683-.02 2.112-.672.535-.818-.374-1.593-.875-2.161-.66-.747-1.122-1.353-2.14-1.61"/>
            </g>
            <text fill="#E6E2E0" font-family="NotoSansCJKkr-Bold, Noto Sans CJK KR" font-size="9" font-weight="bold" transform="translate(204)">
                <tspan x="30.139" y="162">레이싱 매니아</tspan> <tspan x="37.258" y="175">30대 남성</tspan>
            </text>
        </g>
        <g>
            <path stroke="#ED5248" stroke-width="2" d="M59.608 51.25l63.962 44.34"/>
            <path stroke="#ED529A" stroke-width="2" d="M99.066 29.59l25.822 66.723"/>
            <path stroke="#9155C6" stroke-width="2" d="M135.079 51.25l-9.889 46.498"/>
            <path fill="#F4C4B3" d="M133.835 121.905a16.395 16.395 0 0 0-1.552-3.243c-1.829-2.91-3.448-5.832-5.697-8.474-4.179-4.907-10.16-9.22-16.996-7.849-2.961.593-5.662 1.327-8.495 2.189-2.721.826-4.235.068-7.04-.483-11.166-2.193-17.69-.809-24.653 8.47-4.562 6.075-5.488 13.824-6.778 21.188-.372 2.107-.672 4.224-.992 6.34-.529 3.49-.94 8.142.508 11.486 1.382 3.197 4.14 3.404 6.585 1.663 2.965-2.11 7.96-1.532 11.47-1.626 3.54-.096 6.988 0 10.528.112 4.415.14 9.034.652 13.387 1.4 3.82.656 7.724.094 11.56.513 4.353.476 5.655-1.91 6.841-5.738.556-1.793.321-3.838.7-5.715 2.317 1.708 4.169 2.818 7.067 3.28 2.12.338 6.493.806 8.303-.464 2.29-1.608.492-5.301-.416-7.324-2.3-5.124-2.48-10.542-4.33-15.725"/>
            <path fill="#F2F2F2" d="M124.625 157.57c-.062-2.953-.102-5.903-.342-8.859-.058-.719-.873-6.528-.863-6.538 2.153-2.007 4.017-4.309 6.216-6.279 2.352-2.108 5.225-4.196 8.544-4.218-5.842-15.115-9.717-36.23-31.14-31.695-3.537.748-7.564 1.892-11.205.801-1.773-.532-3.574-.8-5.396-1.136-11.798-2.18-23.008 5.426-28.258 15.737-.714 1.402-5.483 15.436-4.895 15.787 3.708 2.194 8.89 4.052 13.282 3.651-1.098 4.04.271 8.119-.387 12.131-.611 3.724-2.132 7.48-2.85 11.255-.423 2.228-1.274 4.347-1.692 6.57-.366 1.96-1.38 4.192-.42 6.15 1.31 2.683 5.345 4.466 8.141 4.772 11.606 1.275 23.046-3.138 34.658-1.393 4.124.62 7.59 1.8 11.798 1.012 1.647-.31 5.497-.923 6.322-2.702.63-1.36-.46-2.59-.726-3.958a28.786 28.786 0 0 1-.35-2.54c-.298-2.854-.377-5.702-.437-8.549"/>
            <path fill="#F4C4B3" d="M87.352 104.7c.787 3.66 5.938 5.268 9.243 5.316 2.593.036 4.854-.469 7.233-1.617 1.7-.82 4.661-4.032 2.745-5.965-.771-.78-2.103-.958-2.706-1.895-.645-.997-.525-3.09-.638-4.244-.039-.395-.216-4.852-.02-4.84-3.282-.22-6.575.867-9.815.36.13 1.451-.487 3.288-.765 4.745-.387 2.04-1.191 2.363-2.732 3.532-1.335 1.014-2.705 1.991-2.644 3.797.01.28.044.55.1.81"/>
            <g transform="translate(62.426 98.541)">
                <mask id="d" fill="#fff">
                    <use xlink:href="#c"/>
                </mask>
                <path fill="#BCA593" d="M20.29 15.644c.965-3.95 2.347-7.864 4.274-11.369.261-.474.548-.934.865-1.375.305-.424.553-.867.932-1.235.35-.34.643-.733 1.076-.987.488-.284 1.14-.725 1.762-.576-.018.169-.438.492-.565.637a9.396 9.396 0 0 0-.668.867c-.248.361-.507.708-.755 1.071-.178.263-.313.533-.468.81-.627 1.119-1.084 2.338-1.58 3.52-1.412 3.366-2.377 7.076-2.918 10.743-.536 3.62-1.14 7.963-.473 11.583 1.474-.051 2.917-.497 4.415-.458 1.22.032 2.377.114 3.604.035 3.715-.24 7.413-.138 11.13.045 4.105.201 8.313.74 12.319-.528a73.412 73.412 0 0 0-.918-4.482c-.892-3.811-2.046-7.763-3.634-11.348-.621-1.402-1.24-2.81-1.928-4.181-.47-.941-.933-1.89-1.51-2.771-.508-.775-1.142-1.697-1.916-2.235-.501-.348-1.075-.568-1.542-.962-.264-.222-.527-.666-.623-.983.256-.05.66.112.908.178.931.241 1.769.771 2.525 1.345.4.302.742.678 1.102 1.021.947.908 1.708 1.932 2.392 3.055.794 1.309 1.48 2.68 2.112 4.072.056.126.112.252.169.376 1.579 3.546 3.113 7.04 4.227 10.807.97 3.281.955 6.539 1.639 9.846.7 3.386 2.143 6.562 3.832 9.57 1.247 2.223 2.564 3.458 2.557 6.133-.013 5.207.497 10.418 1.005 15.593.481 4.892.997 9.726 1.527 14.565.436 3.979 2.017 5.918-.726 9.19-1.65 1.969-6.435 4.268-8.952 5.119-7.756 2.627-18.783 1.49-26.913 1.49-12.295 0-15.766-1.637-28.325-1.82.805-11.29.783-25.143 2.918-36.067.612-3.137.184-5.091 2.529-7.432 1.583-1.58 4.42-2.21 6.24-4.018 5.062-5.035 6.433-12.558 7.026-19.358.286-3.279.537-6.24 1.329-9.486" mask="url(#d)"/>
            </g>
            <path fill="#FFDECF" d="M106.94 99.465c-2.87 5.148-11.754 4.353-15.47.568-2.892-2.946-7.384-8.653-8.094-12.774-.579-3.362 1.247-7.064 3.5-9.463 4.955-5.277 11.42-4.798 16.46-.24 1.74 1.574 4.252 3.337 5.097 5.596.902 2.412.6 5.329.454 7.86-.13 2.294-.539 5.925-1.947 8.453"/>
            <path fill="#474843" d="M90.8 80.71c-.557.83-1.282 1.403-2.837 1.918-3.582 1.188-4.04 2.807-1.662 5.493 2.619 2.956 1.339 7.019 2.218 8.555-1.164-1.079-2.476-1.788-3.84-2.873-1.383-1.102-2.46-2.837-3.261-4.377-1.6-3.083-2.455-6.853-1.563-10.27.516-1.978 1.483-3.886 2.955-5.339 1.426-1.406 3.582-3.478 5.793-2.592.338-1.873 4.443-2.995 6.02-3.177 5.144-.595 8.427 3.07 11.54 6.485.653.715 7.261 8.585 7.848 7.538-4.36 7.78-22.131-3.443-21.705-4.238-.665 1.242-1.022 2.156-1.506 2.878"/>
            <path fill="#E8AB95" d="M97.855 95.231c-.166-1.536.948-7.928 2.86-4.688.75 1.271 1.297 3.323.946 4.79-1.27-.013-2.553.089-3.806-.102"/>
            <path fill="#A89385" d="M105.226 70.362c-2.283-1.985-11.586 5.948-13.718 6.788-4.882 1.927-8.741 5.183-12.864 8.413-.742-1.062-.63-3.301-.899-4.66-.647-3.267-1.469-8.04.185-11.165 1.385-2.62 4.674-3.511 7.27-4.472 3.907-1.444 6.434-3.457 10.617-1.836 4.123 1.6 6.2 4.144 9.41 6.932"/>
            <path fill="#BCA593" d="M97.2 74.667c-.754.345-1.497.72-2.236 1.057-5.167 2.365-17.819 10.145-10.978 17.451-1.96.242-4.047 1.41-6.016 1.78-2.814.53-7.413.116-7.39-3.59.016-2.859 3.462-5.476 5.585-6.951 3.86-2.68 8.304-4.422 12.198-7.087 3.817-2.615 7.482-5.466 11.295-8.037 3.353-2.26 7.796-4.623 11.973-3.46 4.912 1.37 3.877 6.353 1.718 9.693-.274.424-2.792 3.91-2.868 3.83-1.899-2.031-4.222-4.316-7.029-5.158-2.258-.676-4.246-.45-6.253.472"/>
            <path fill="#666" d="M84.75 147.174l3.058-8.173c.667 3.282 4.213 7.689-3.059 8.173m9.518-2.475c-1.688-5.663-3.084-11.41-4.584-17.128-1.228-4.686-.174-7.246 2.954-9.105-1.4-2.406-3.291-4.588-4.015-7.099-1.462-5.077-2.787-10.192-4.031-15.325-.615-2.537-1.198-5.08-1.793-7.62-.144-.616-.233-.833-.604-1.26-.276-.319-.523-.434-.705-.856-.297-.684-.224-1.474-.447-2.178-.198-.626-.385-1.222-.565-1.821a57.305 57.305 0 0 1-.534-1.895c-.12-.458-.245-1.249-.526-1.622-.327-.434-.18-.288-.707-.387-.59-.111-1.155.16-1.663-.212-.865-.633-.863-1.946-1.074-2.879a13.27 13.27 0 0 0-.214-.807l.205-.042a.979.979 0 0 0 .767-1.159L73.085 59.72a.99.99 0 0 0-1.172-.76l-2.382.489a.982.982 0 0 0-.768 1.16l3.647 13.588a.992.992 0 0 0 1.17.759l.518-.106c.427 1.13 1.074 2.797.932 3.074-.2.39-1.52.678-1.864.88-.086 1.158.36 2.947.71 4.087 1.047 3.407 1.577 6.952 2.414 10.42.926 3.837 1.992 7.64 2.937 11.473-.136-.552-12.018 2.214-13.176 2.034-.102 2.135.662 3.917.626 5.989 1.25.062 13.027-.056 13.048.394.311 6.524-5.857 8.128-8.839 12.058l3.585 4.188c1.411-1.309 2.58-2.504 3.868-3.556 1.484-1.21 2.229-3.776 5.185-2.242 2.876 1.493 3.912 3.664 3.182 6.537-1.295 5.092-2.783 10.142-4.338 15.166-1.192 3.849-.383 4.93 3.534 4.348 1.69-.251 3.396-.622 5.087-.59 3.37.065 4.231-1.213 3.278-4.41"/>
            <path fill="#474843" d="M124.725 105.383c.95-1.4 1.806-2.856 2.747-4.27.923-1.387 2.044-2.636 2.958-4.032.68-1.04 2.74-3.25 2.147-4.624-.468-1.08-2.258-.94-3.225-1.05-1.979-.23-3.972-.249-5.957-.324-1.136-.044-2.56-.34-3.63.164-1.238.583-1.842 1.92-2.722 2.876a23.294 23.294 0 0 0-2.378 3.062c-1.745 2.655-3.406 5.363-5.154 8.019-.8 1.217-3.213 4.087-2.608 5.664.525 1.374 3.047 1.086 4.185 1.11 2.035.042 4.228-.072 6.321-.207 1.467-.095 2.867-.14 3.887-1.307.935-1.072 1.51-2.486 2.38-3.623.368-.475.714-.964 1.049-1.458"/>
            <path fill="#333" d="M119.42 111.67a4.326 4.326 0 0 1-.268.092c-2.26.703-5 .308-7.33.269-1.235-.022-4.058.098-3.673-1.666.218-.995 1.067-1.805 1.63-2.62 1.01-1.46 1.875-3.012 2.802-4.528 1.594-2.604 2.943-5.45 5.01-7.71.969-1.059 1.909-2.533 3.318-2.995 2.286-.75 5.72.007 8.034.162 1.895.126 3.172.285 3.47-.48 1.33.975-2.065 5.203-2.902 6.548-1.388 2.228-2.434 3.058-3.88 5.246a338.814 338.814 0 0 1-3.415 5.062c-.767 1.118-1.516 2.127-2.797 2.62"/>
            <path fill="#474843" d="M123.379 97.608c.043.003.084.006.119.012.086.012.176.029.267.045.201.035.397.069.598.08.316.015.557-.03.74-.14.242-.145.412-.444.577-.733.104-.184.203-.358.32-.497.149-.179.209-.356.167-.49-.036-.11-.14-.188-.314-.234-.336-.09-.73-.111-1.11-.133l-.31-.017c-.282-.014-.532-.01-.742.206a4.708 4.708 0 0 0-.713.941c-.03.05-.07.113-.114.178-.114.17-.258.382-.242.523.019.16.162.232.495.25l.139.004c.043.003.084.004.123.005m.975.302a5.176 5.176 0 0 1-.618-.08 7.355 7.355 0 0 0-.263-.044 2.125 2.125 0 0 0-.222-.015c-.046 0-.095-.002-.143-.005-.183-.01-.612-.032-.655-.399-.023-.201.133-.431.27-.634.04-.061.08-.118.107-.166.193-.342.457-.69.74-.978.259-.263.56-.272.871-.256l.311.018c.39.021.792.045 1.144.138.29.079.396.23.433.346.06.19-.01.419-.198.646-.108.13-.203.295-.303.472-.176.31-.357.627-.638.796-.212.126-.484.18-.836.161"/>
            <path fill="#474843" d="M124.774 95.94c-.446-.023-.994.414-1.067.852-.025.151-.008.264.05.336.049.058.13.09.24.097.236.012.535-.11.707-.236.218-.162.525-.518.49-.771-.013-.105-.088-.183-.227-.238a.685.685 0 0 0-.193-.04m-.787 1.453a.483.483 0 0 1-.362-.16c-.09-.111-.117-.269-.085-.467.087-.529.703-1.022 1.243-.994a.794.794 0 0 1 .245.053c.248.097.319.254.334.37.047.34-.317.75-.557.927-.19.142-.528.287-.818.271"/>
            <path fill="#474843" d="M124.887 96.313c-.015-.557-.954.06-.968.45-.014.311.227.311.46.176.182-.108.514-.391.508-.626"/>
            <path fill="#736357" d="M122.658 95.434c.043-.057.082-.103.106-.111.12-.04.403 0 .53.042-.12.156-.12.156-.182.229-.053.062-.104.182-.178.22-.086.048-.152.016-.242.013a.736.736 0 0 1-.29-.062c.027.01.153-.196.256-.33"/>
            <path fill="#736357" d="M122.706 95.745c.024 0 .046.004.068.007.041.006.076.012.119-.01.03-.016.063-.07.09-.112a.706.706 0 0 1 .064-.09c.045-.05.057-.066.103-.125a1.337 1.337 0 0 0-.195-.025.432.432 0 0 0-.164.013c.002 0-.008.004-.065.081-.034.042-.068.092-.1.14-.029.04-.052.076-.073.103a.74.74 0 0 0 .121.016l.032.002zm.106.18c-.02-.002-.023-.321-.043-.324-.018-.003-.019-.321-.038-.322l-.032-.002c-.11-.006-.228.287-.316.247-.043-.02-.069.09-.05.048.01-.021.022.044.042.035.025-.026.074-.061.113-.117.034-.048.068-.08.102-.125.067-.089.105-.118.147-.13a.66.66 0 0 1 .228-.018c.123.007.267.035.356.065.025.01.045.031.053.056a.084.084 0 0 1-.013.076c-.12.16-.12.16-.184.235a.49.49 0 0 0-.05.071.446.446 0 0 1-.153.168.276.276 0 0 1-.162.036z"/>
            <path fill="#474843" d="M121.367 97.317l.047.005.07.008c.063.007.132.015.201.02.1.004.176 0 .234-.017.076-.02.099-.073.135-.171.013-.032.025-.064.04-.095.044-.091.101-.18.158-.266.033-.052.067-.104.099-.158a1.53 1.53 0 0 1 .067-.1c.048-.07.197-.279.187-.338-.003 0-.027-.015-.105-.019a.823.823 0 0 0-.068-.002c-.036-.001-.069 0-.096-.005l-.026-.002c-.2-.01-.333.176-.442.352l-.024.038c-.059.096-.122.19-.184.282-.093.14-.19.283-.274.432l-.019.036m.309.199a3.217 3.217 0 0 1-.212-.02l-.067-.008c-.084-.007-.162-.02-.196-.087-.035-.063-.002-.131.037-.2.087-.155.186-.301.281-.445.061-.091.122-.183.18-.277l.025-.038c.1-.164.293-.47.634-.427l.021.002.056.001c.093 0 .225-.003.304.087.1.116-.018.302-.182.533-.025.039-.049.07-.06.09a3.01 3.01 0 0 1-.103.164c-.052.082-.107.165-.147.247a1.126 1.126 0 0 0-.034.082c-.038.104-.086.231-.249.274a.91.91 0 0 1-.288.022M127.292 95.9c-.168-.009-.268.022-.335.103-.07.083-.121.189-.174.3-.054.109-.11.222-.189.322-.209.266-.401.571-.554.882-.015.03-.04.067-.066.11-.044.068-.112.169-.106.22.002.021.007.03.1.046l.054.012.05.011c.108.028.257.064.39.07.122.007.204-.013.247-.056.126-.135.22-.321.311-.5a6.156 6.156 0 0 1 .44-.733c.015-.022.04-.053.072-.093.096-.12.35-.439.316-.571-.003-.013-.012-.03-.046-.046-.085-.034-.19-.044-.292-.057l-.067-.006a3.576 3.576 0 0 0-.151-.014m-.84 2.243a2.447 2.447 0 0 1-.422-.073l-.049-.013-.046-.01c-.082-.015-.218-.042-.236-.191-.013-.11.064-.228.132-.33.023-.035.045-.067.057-.093.157-.321.356-.636.572-.91.068-.088.118-.187.17-.294.057-.115.114-.234.197-.333.134-.162.335-.17.474-.162.055.001.11.008.162.016l.064.006c.115.012.233.026.34.069a.228.228 0 0 1 .146.157c.052.194-.152.472-.348.717a2.926 2.926 0 0 0-.066.084 6.28 6.28 0 0 0-.427.713c-.097.19-.196.385-.338.536-.08.085-.204.12-.381.11"/>
            <path fill="#333" d="M114.6 98.89c.422-.39.653-1.05.988-1.498.192-.257.533-.588.398-.944-.391-.082-.813.668-.988.951-.23.376-.544.772-.718 1.17-.098.227-.114.68.252.382l.068-.06"/>
            <path fill="#FFDECF" d="M128.255 117.76c-1.539-1.994-2.561-4.102-2.243-6.273.438-2.997 3.567-4.642 4.462-7.45.63-1.975-1.153-5.85-2.152-7.426-1.617.058-4.088 2.632-5.553 3.66-3.348 2.346-1.368 1.91-1.065 4.976.339 3.423-4.022 5.28-3.565 8.954.2 1.611 1.187 3.1 1.626 4.644.49 1.718 1.097 3.46 1.578 5.208.849 3.07 1.207 6.255 2.088 9.317.588 2.043 1.487 5.912 3.037 7.365 1.079 1.01 2.766 2.051 4.019 2.831 2.127 1.325 5.678 3.068 8.241 2.38 3.962-1.063 1.448-5.149 1.54-7.897.149-4.48-1.482-8.44-4.184-12.001-1.79-2.358-5.434-5.186-7.829-8.289M78.758 126.409c1.051-2.29 1.646-4.852 2.279-7.227.319-1.198.6-2.991 1.525-3.918 1.368-1.373 4.323-2.286 6.257-2.378 2.668-.124 3.285 1.116 4.544 3.067 2.712 4.202 3.06 8.344-2.256 9.433-.065.013-.565 1.654-.72 1.886-.634.953-1.38 1.296-2.478 1.638-1.52.474-1.84.228-2.536 1.626-1.03 2.07-1.528 4.406-2.375 6.555-1.025 2.606-2.313 5.101-3.51 7.632-1.29 2.73-2.646 5.346-4.944 7.41-2.117 1.902-5.368 2.134-8.102 2.347-1.342.105-2.12.189-3.113-.853-1.56-1.64-.279-4.412.074-6.54.453-2.73.498-5.264 2.364-7.514 2.204-2.659 5.104-4.77 7.636-7.122 1.498-1.391 3.07-2.266 4.218-3.985.434-.65.808-1.34 1.137-2.057"/>
            <g>
                <path fill="#ED529A" d="M109.543 28.664c0 1.894-1.553 3.427-3.47 3.427H88.648c-1.916 0-3.469-1.533-3.469-3.427v-17.22c0-1.893 1.553-3.428 3.47-3.428h17.426c1.916 0 3.47 1.535 3.47 3.429v17.219z"/>
                <path fill="#ED5248" d="M62.675 50.558c0 1.893-1.553 3.427-3.469 3.427H41.78c-1.916 0-3.47-1.534-3.47-3.427v-17.22c0-1.894 1.554-3.428 3.47-3.428h17.426c1.916 0 3.469 1.534 3.469 3.428v17.22z"/>
                <path fill="#9155C6" d="M156.411 50.558c0 1.893-1.552 3.427-3.468 3.427h-17.427c-1.916 0-3.469-1.534-3.469-3.427v-17.22c0-1.894 1.553-3.428 3.469-3.428h17.427c1.916 0 3.468 1.534 3.468 3.428v17.22z"/>
                <path fill="#FFF" d="M105.786 14.164l-2.222-2.196a.96.96 0 0 0-1.348 0l-2.975 2.94-1.822-1.806-1.348 1.33 1.352 1.336-8.492 8.387v4.468h4.523l8.491-8.39 1.347 1.335 1.348-1.331-1.829-1.806 2.975-2.94a.92.92 0 0 0 0-1.327zM92.663 26.742l-1.827-1.807 7.677-7.586 1.828 1.805-7.678 7.588zM51.764 33.015s.627 2.219.627 4.02c0 1.725-1.144 3.128-2.895 3.128-1.75 0-3.072-1.398-3.072-3.128l.022-.302a11.492 11.492 0 0 0-2.734 7.447c0 3.7 3.034 6.7 6.78 6.7 3.747 0 6.782-3 6.782-6.7 0-4.52-2.2-8.548-5.51-11.165m-1.517 15.352c-1.51 0-2.734-1.176-2.734-2.63 0-1.361.886-2.315 2.386-2.612 1.5-.298 3.052-1.01 3.913-2.156.33 1.079.503 2.218.503 3.378 0 2.216-1.822 4.02-4.068 4.02M150.763 34.263h-12.897c-.89 0-1.612.712-1.612 1.592V48.6c0 .88.721 1.592 1.612 1.592h12.897c.89 0 1.612-.712 1.612-1.592V35.855c0-.88-.722-1.592-1.612-1.592zM137.866 48.6h12.897V35.855h-12.897V48.6zm11.285-11.15h-4.03c-.891 0-1.613.712-1.613 1.592v1.811c-.479.276-.806.786-.806 1.375 0 .88.722 1.593 1.612 1.593.89 0 1.613-.713 1.613-1.593 0-.589-.327-1.095-.807-1.375v-1.811h2.419v6.372h-6.448v-6.372h1.611v-1.593h-3.224v9.558h9.673v-9.558z"/>
            </g>
            <text fill="#F0F0F1" font-family="NotoSansCJKkr-Bold, Noto Sans CJK KR" font-size="9" font-weight="bold" transform="translate(38 7)">
                <tspan x="36.779" y="155">슈팅 매니아</tspan> <tspan x="39.758" y="168">30대 남성</tspan>
            </text>
        </g>
    </g>
</svg>
